<svg width="84" height="20" viewBox="0 0 84 20" fill="none" xmlns="http://www.w3.org/2000/svg">
<path d="M36.219 9.91406V13.7148C36.0777 13.9017 35.8567 14.1068 35.5559 14.3301C35.2597 14.5488 34.8655 14.738 34.3733 14.8975C33.8811 15.057 33.2681 15.1367 32.5344 15.1367C31.9101 15.1367 31.3381 15.0319 30.8186 14.8223C30.2991 14.6081 29.8502 14.2959 29.4719 13.8857C29.0982 13.4756 28.8088 12.9766 28.6038 12.3887C28.3987 11.7962 28.2961 11.1217 28.2961 10.3652V9.6748C28.2961 8.92285 28.3896 8.25293 28.5764 7.66504C28.7678 7.07259 29.0413 6.57129 29.3967 6.16113C29.7522 5.75098 30.1806 5.44108 30.6819 5.23145C31.1877 5.01725 31.7597 4.91016 32.3977 4.91016C33.2135 4.91016 33.8879 5.04688 34.4211 5.32031C34.9589 5.58919 35.3736 5.96289 35.6653 6.44141C35.9569 6.91992 36.1415 7.4668 36.219 8.08203H34.5374C34.4827 7.73568 34.3756 7.42578 34.2161 7.15234C34.0611 6.87891 33.8378 6.66471 33.5461 6.50977C33.259 6.35026 32.8853 6.27051 32.425 6.27051C32.0286 6.27051 31.6799 6.3457 31.3792 6.49609C31.0784 6.64648 30.8277 6.86751 30.6272 7.15918C30.4312 7.45085 30.2831 7.80632 30.1829 8.22559C30.0826 8.64486 30.0325 9.12337 30.0325 9.66113V10.3652C30.0325 10.9121 30.0894 11.3975 30.2034 11.8213C30.3219 12.2451 30.4905 12.6029 30.7092 12.8945C30.9325 13.1862 31.2037 13.4072 31.5227 13.5576C31.8417 13.7035 32.2017 13.7764 32.6028 13.7764C32.9947 13.7764 33.316 13.7445 33.5667 13.6807C33.8173 13.6123 34.0155 13.5326 34.1614 13.4414C34.3118 13.3457 34.428 13.2546 34.51 13.168V11.1924H32.4387V9.91406H36.219ZM37.9209 11.3838V11.2266C37.9209 10.6934 37.9983 10.1989 38.1533 9.74316C38.3082 9.28288 38.5315 8.88411 38.8232 8.54688C39.1194 8.20508 39.4795 7.94076 39.9033 7.75391C40.3317 7.5625 40.8147 7.4668 41.3525 7.4668C41.8948 7.4668 42.3779 7.5625 42.8017 7.75391C43.2301 7.94076 43.5924 8.20508 43.8886 8.54688C44.1849 8.88411 44.4105 9.28288 44.5654 9.74316C44.7203 10.1989 44.7978 10.6934 44.7978 11.2266V11.3838C44.7978 11.917 44.7203 12.4115 44.5654 12.8672C44.4105 13.3229 44.1849 13.7217 43.8886 14.0635C43.5924 14.4007 43.2324 14.665 42.8086 14.8564C42.3847 15.0433 41.9039 15.1367 41.3662 15.1367C40.8239 15.1367 40.3385 15.0433 39.9101 14.8564C39.4863 14.665 39.1263 14.4007 38.83 14.0635C38.5338 13.7217 38.3082 13.3229 38.1533 12.8672C37.9983 12.4115 37.9209 11.917 37.9209 11.3838ZM39.5683 11.2266V11.3838C39.5683 11.7165 39.6025 12.0309 39.6709 12.3271C39.7392 12.6234 39.8463 12.8831 39.9922 13.1064C40.138 13.3298 40.3248 13.5052 40.5527 13.6328C40.7806 13.7604 41.0517 13.8242 41.3662 13.8242C41.6715 13.8242 41.9358 13.7604 42.1592 13.6328C42.387 13.5052 42.5739 13.3298 42.7197 13.1064C42.8655 12.8831 42.9726 12.6234 43.041 12.3271C43.1139 12.0309 43.1504 11.7165 43.1504 11.3838V11.2266C43.1504 10.8984 43.1139 10.5885 43.041 10.2969C42.9726 10.0007 42.8633 9.73861 42.7129 9.51074C42.567 9.28288 42.3802 9.10514 42.1523 8.97754C41.929 8.84538 41.6624 8.7793 41.3525 8.7793C41.0426 8.7793 40.7737 8.84538 40.5459 8.97754C40.3226 9.10514 40.138 9.28288 39.9922 9.51074C39.8463 9.73861 39.7392 10.0007 39.6709 10.2969C39.6025 10.5885 39.5683 10.8984 39.5683 11.2266ZM46.1442 11.3838V11.2266C46.1442 10.6934 46.2217 10.1989 46.3766 9.74316C46.5316 9.28288 46.7549 8.88411 47.0466 8.54688C47.3428 8.20508 47.7028 7.94076 48.1266 7.75391C48.555 7.5625 49.0381 7.4668 49.5759 7.4668C50.1182 7.4668 50.6013 7.5625 51.0251 7.75391C51.4535 7.94076 51.8158 8.20508 52.112 8.54688C52.4082 8.88411 52.6338 9.28288 52.7888 9.74316C52.9437 10.1989 53.0212 10.6934 53.0212 11.2266V11.3838C53.0212 11.917 52.9437 12.4115 52.7888 12.8672C52.6338 13.3229 52.4082 13.7217 52.112 14.0635C51.8158 14.4007 51.4558 14.665 51.0319 14.8564C50.6081 15.0433 50.1273 15.1367 49.5895 15.1367C49.0472 15.1367 48.5619 15.0433 48.1335 14.8564C47.7097 14.665 47.3496 14.4007 47.0534 14.0635C46.7572 13.7217 46.5316 13.3229 46.3766 12.8672C46.2217 12.4115 46.1442 11.917 46.1442 11.3838ZM47.7917 11.2266V11.3838C47.7917 11.7165 47.8259 12.0309 47.8942 12.3271C47.9626 12.6234 48.0697 12.8831 48.2155 13.1064C48.3614 13.3298 48.5482 13.5052 48.7761 13.6328C49.0039 13.7604 49.2751 13.8242 49.5895 13.8242C49.8949 13.8242 50.1592 13.7604 50.3825 13.6328C50.6104 13.5052 50.7972 13.3298 50.9431 13.1064C51.0889 12.8831 51.196 12.6234 51.2643 12.3271C51.3373 12.0309 51.3737 11.7165 51.3737 11.3838V11.2266C51.3737 10.8984 51.3373 10.5885 51.2643 10.2969C51.196 10.0007 51.0866 9.73861 50.9362 9.51074C50.7904 9.28288 50.6035 9.10514 50.3757 8.97754C50.1524 8.84538 49.8858 8.7793 49.5759 8.7793C49.266 8.7793 48.9971 8.84538 48.7692 8.97754C48.5459 9.10514 48.3614 9.28288 48.2155 9.51074C48.0697 9.73861 47.9626 10.0007 47.8942 10.2969C47.8259 10.5885 47.7917 10.8984 47.7917 11.2266ZM59.4193 7.60352H60.9164V14.7949C60.9164 15.4603 60.7751 16.0254 60.4926 16.4902C60.21 16.9551 59.8158 17.3083 59.31 17.5498C58.8041 17.7959 58.2185 17.9189 57.5531 17.9189C57.2706 17.9189 56.9561 17.8779 56.6098 17.7959C56.268 17.7139 55.9353 17.5817 55.6117 17.3994C55.2927 17.2217 55.0261 16.987 54.8119 16.6953L55.5844 15.7246C55.8487 16.0391 56.1404 16.2692 56.4594 16.415C56.7784 16.5609 57.1134 16.6338 57.4643 16.6338C57.8425 16.6338 58.1638 16.5632 58.4281 16.4219C58.697 16.2852 58.9044 16.0824 59.0502 15.8135C59.196 15.5446 59.269 15.2165 59.269 14.8291V9.27832L59.4193 7.60352ZM54.3949 11.3838V11.2402C54.3949 10.6797 54.4633 10.1693 54.6 9.70898C54.7367 9.24414 54.9327 8.84538 55.1879 8.5127C55.4431 8.17546 55.753 7.91797 56.1176 7.74023C56.4822 7.55794 56.8946 7.4668 57.3549 7.4668C57.8334 7.4668 58.2413 7.55339 58.5785 7.72656C58.9203 7.89974 59.2052 8.14811 59.433 8.47168C59.6609 8.79069 59.8386 9.1735 59.9662 9.62012C60.0984 10.0622 60.1964 10.5544 60.2602 11.0967V11.5547C60.2009 12.0833 60.1007 12.5664 59.9594 13.0039C59.8181 13.4414 59.6313 13.8197 59.3988 14.1387C59.1664 14.4577 58.8793 14.7038 58.5375 14.877C58.2003 15.0501 57.8015 15.1367 57.3412 15.1367C56.89 15.1367 56.4822 15.0433 56.1176 14.8564C55.7576 14.6696 55.4477 14.4076 55.1879 14.0703C54.9327 13.7331 54.7367 13.3366 54.6 12.8809C54.4633 12.4206 54.3949 11.9215 54.3949 11.3838ZM56.0424 11.2402V11.3838C56.0424 11.721 56.0743 12.0355 56.1381 12.3271C56.2065 12.6188 56.309 12.8763 56.4457 13.0996C56.587 13.3184 56.7647 13.4915 56.9789 13.6191C57.1977 13.7422 57.4552 13.8037 57.7514 13.8037C58.1387 13.8037 58.4555 13.7217 58.7016 13.5576C58.9522 13.3936 59.1436 13.1725 59.2758 12.8945C59.4125 12.612 59.5082 12.2975 59.5629 11.9512V10.7139C59.5356 10.445 59.4786 10.1943 59.392 9.96191C59.31 9.72949 59.1983 9.52669 59.057 9.35352C58.9158 9.17578 58.738 9.03906 58.5238 8.94336C58.3096 8.8431 58.0567 8.79297 57.765 8.79297C57.4688 8.79297 57.2113 8.85677 56.9926 8.98438C56.7738 9.11198 56.5938 9.28743 56.4525 9.51074C56.3158 9.73405 56.2133 9.99382 56.1449 10.29C56.0766 10.5863 56.0424 10.903 56.0424 11.2402ZM64.6691 4.5V15H63.0148V4.5H64.6691ZM70.0145 15.1367C69.4676 15.1367 68.9732 15.0479 68.5311 14.8701C68.0936 14.6878 67.7199 14.4349 67.41 14.1113C67.1047 13.7878 66.87 13.4072 66.7059 12.9697C66.5418 12.5322 66.4598 12.0605 66.4598 11.5547V11.2812C66.4598 10.7025 66.5441 10.1784 66.7127 9.70898C66.8814 9.23958 67.1161 8.83854 67.4168 8.50586C67.7176 8.16862 68.0731 7.91113 68.4833 7.7334C68.8934 7.55566 69.3377 7.4668 69.8163 7.4668C70.3449 7.4668 70.8075 7.55566 71.204 7.7334C71.6004 7.91113 71.9286 8.16178 72.1883 8.48535C72.4527 8.80436 72.6486 9.1849 72.7762 9.62695C72.9084 10.069 72.9745 10.5566 72.9745 11.0898V11.7939H67.2596V10.6113H71.3475V10.4814C71.3384 10.1852 71.2792 9.90723 71.1698 9.64746C71.065 9.3877 70.9032 9.17806 70.6844 9.01855C70.4657 8.85905 70.174 8.7793 69.8094 8.7793C69.536 8.7793 69.2922 8.83854 69.078 8.95703C68.8683 9.07096 68.6929 9.2373 68.5516 9.45605C68.4103 9.6748 68.301 9.93913 68.2235 10.249C68.1506 10.5544 68.1141 10.8984 68.1141 11.2812V11.5547C68.1141 11.8783 68.1574 12.179 68.244 12.457C68.3351 12.7305 68.4673 12.9697 68.6405 13.1748C68.8137 13.3799 69.0233 13.5417 69.2694 13.6602C69.5155 13.7741 69.7958 13.8311 70.1102 13.8311C70.5067 13.8311 70.8599 13.7513 71.1698 13.5918C71.4797 13.4323 71.7486 13.2067 71.9764 12.915L72.8446 13.7559C72.6851 13.9883 72.4777 14.2116 72.2225 14.4258C71.9673 14.6354 71.6551 14.8063 71.286 14.9385C70.9214 15.0706 70.4976 15.1367 70.0145 15.1367Z" fill="black"/>
<g clip-path="url(#clip0_14_1391)">
<path d="M17.6589 8.33402C17.737 8.33402 17.8003 8.39888 17.8003 8.47889V10C17.8003 10.5693 17.7487 11.126 17.6497 11.666C16.8835 15.8604 13.2752 19.0303 8.95014 18.9998C4.09707 18.9655 0.213154 14.9498 0.223899 9.97971C0.234576 5.01857 4.16518 1 9.0121 1C11.3867 1 13.5413 1.96476 15.1232 3.53188C15.1803 3.58845 15.1818 3.68168 15.1256 3.7392L13.0242 5.89115C12.9701 5.94655 12.8827 5.948 12.8273 5.89396C11.8345 4.92614 10.4912 4.33197 9.0121 4.33197C5.95781 4.33197 3.49831 6.83284 3.47757 9.96066C3.45673 13.109 5.94271 15.668 9.0121 15.668C11.5025 15.668 13.6089 13.9832 14.3034 11.666H9.15357C9.07544 11.666 9.0121 11.6011 9.0121 11.5211V8.47886C9.0121 8.39884 9.07544 8.33398 9.15357 8.33398H17.6589V8.33402Z" fill="#2196F3"/>
<path d="M17.6585 8.33398H16.5976C16.6757 8.33398 16.739 8.39885 16.739 8.47886V9.99997C16.739 10.5693 16.6874 11.126 16.5884 11.666C15.8575 15.6675 12.5397 18.7365 8.48071 18.9837C8.63602 18.9931 8.79235 18.9986 8.94979 18.9997C13.2749 19.0303 16.8832 15.8604 17.6493 11.666C17.7484 11.126 17.8 10.5693 17.8 9.99997V8.47883C17.8 8.39885 17.7366 8.33398 17.6585 8.33398V8.33398Z" fill="#1E88E5"/>
<path d="M3.98457 7.62632L1.31555 5.65138C2.81292 2.87787 5.69834 1 9.01171 1C11.3864 1 13.5409 1.96476 15.1228 3.53188C15.1799 3.58845 15.1814 3.68168 15.1252 3.7392L13.0238 5.89115C12.9698 5.94645 12.8824 5.94817 12.8271 5.89424C11.8343 4.92625 10.4909 4.332 9.01171 4.332C6.78266 4.332 4.86126 5.68144 3.98457 7.62632V7.62632Z" fill="#F44336"/>
<path d="M3.21411 7.05622L3.98463 7.62635C4.78484 5.85117 6.45556 4.57268 8.43601 4.36297C8.45091 4.36132 8.46522 4.35931 8.48039 4.35784C8.30611 4.34089 8.12948 4.33203 7.95083 4.33203C5.9372 4.33203 4.18229 5.41917 3.21411 7.05622V7.05622Z" fill="#E53935"/>
<path d="M14.0619 3.53188C14.119 3.58845 14.1205 3.68168 14.0643 3.73923L12.3587 5.4859C12.5221 5.61317 12.6785 5.74929 12.8269 5.894C12.8824 5.94803 12.9698 5.94659 13.0239 5.89118L15.1252 3.73923C15.1814 3.68168 15.1799 3.58848 15.1228 3.53188C13.541 1.96476 11.3864 1 9.01176 1C8.83355 1 8.65676 1.00608 8.4812 1.0168C10.6453 1.14882 12.5987 2.08232 14.0619 3.53188V3.53188Z" fill="#E53935"/>
<path d="M15.4585 16.1164C13.8537 17.89 11.5592 19 9.01182 19C5.57116 19 2.59236 16.9751 1.14978 14.0252L3.87465 12.1129C4.69233 14.1965 6.68445 15.668 9.01182 15.668C10.4724 15.668 11.8007 15.0885 12.7895 14.1418L15.4585 16.1164Z" fill="#4CAF50"/>
<path d="M3.87467 12.1129L3.07117 12.6768C4.0044 14.4572 5.8396 15.668 7.95087 15.668C8.12941 15.668 8.3059 15.659 8.48012 15.6421C6.38437 15.4375 4.62929 14.0359 3.87467 12.1129Z" fill="#43A047"/>
<path d="M9.01181 19.0001C11.5592 19.0001 13.8537 17.89 15.4585 16.1165L14.8048 15.6328C13.2979 17.5534 11.0373 18.8275 8.48267 18.9837C8.65774 18.9944 8.83413 19.0001 9.01181 19.0001Z" fill="#43A047"/>
<path d="M3.47711 9.99998C3.47711 10.7468 3.61821 11.4599 3.87461 12.1129L1.14971 14.0252C0.557017 12.8141 0.223511 11.4469 0.223511 9.99998C0.223511 8.42273 0.619599 6.94034 1.31559 5.65137L3.9846 7.6263C3.65889 8.3481 3.47711 9.15251 3.47711 9.99998V9.99998Z" fill="#FFC107"/>
<path d="M3.0711 12.6768L3.8746 12.1129C3.6182 11.4599 3.4771 10.7468 3.4771 9.99997C3.4771 9.15249 3.65888 8.34808 3.98459 7.62628L3.21408 7.05615C2.71373 7.90219 2.42334 8.89497 2.41627 9.96066C2.40975 10.9434 2.64754 11.8688 3.0711 12.6768V12.6768Z" fill="#FFB300"/>
</g>
<defs>
<clipPath id="clip0_14_1391">
<rect width="17.5765" height="18" fill="white" transform="translate(0.223511 1)"/>
</clipPath>
</defs>
</svg>
